<svg width="52" height="43" viewBox="0 0 52 43" fill="none" xmlns="http://www.w3.org/2000/svg">
<path d="M28.3755 40.3302C32.9152 36.5724 37.2489 32.569 41.3492 28.3374C43.3905 26.2317 45.3741 24.0708 47.2949 21.8597C48.2566 20.7542 49.2032 19.6336 50.1322 18.5005C50.6067 17.924 51.0763 17.3424 51.5433 16.7608C51.6889 16.5778 51.9174 16.3772 51.9751 16.1466C52.0254 15.9511 51.9827 15.6879 51.9525 15.4923C51.93 15.3494 51.9073 15.1489 51.7818 15.0536C51.5784 14.9007 51.1466 15.0662 50.9206 15.1263C50.328 15.2817 49.7656 15.54 49.2358 15.8433C48.1411 16.475 47.1794 17.3048 46.2077 18.107C44.0333 19.8969 41.8338 21.6542 39.6041 23.3739C35.1247 26.8283 30.5198 30.1273 25.7567 33.1807C21.0036 36.2265 16.0924 39.0291 11.0104 41.4884C10.802 41.5886 9.47876 42.3758 9.38837 42.0023L9.43859 42.6942C9.45617 42.4936 9.85037 42.3106 9.99851 42.2078C10.1994 42.07 10.3977 41.9321 10.5961 41.7942C10.9953 41.5184 11.392 41.2402 11.7888 40.9619C12.5822 40.4029 13.3706 39.8389 14.1565 39.2698C15.7258 38.1317 17.28 36.9685 18.8142 35.7853C21.8423 33.4489 24.8051 31.0273 27.6951 28.5229C33.5153 23.4766 39.0442 18.0969 44.2442 12.4164C45.5524 10.985 46.8404 9.53605 48.1084 8.06954C48.7412 7.33503 49.3689 6.59802 49.9916 5.85349C50.1949 5.61283 50.2954 5.49501 50.2878 5.17914C50.2828 4.95353 50.2954 4.56246 50.1196 4.38698C49.8736 4.13629 49.5999 4.47722 49.4115 4.63265C48.9847 4.98612 48.5553 5.33707 48.1285 5.69054C47.3401 6.33981 46.5517 6.98909 45.7633 7.63586C44.1613 8.95195 42.5594 10.263 40.955 11.5741C34.5924 16.7683 28.2023 21.9374 21.674 26.9286C15.6429 31.5387 9.39842 35.9507 2.57389 39.3199C2.14704 39.5305 1.71517 39.7386 1.2833 39.9416C1.06486 40.0444 0.23376 40.6009 0.0805974 40.2074L0.153412 40.809C0.153412 40.7363 0.944335 40.2425 1.04226 40.1673C1.35863 39.9316 1.67249 39.696 1.98634 39.4603C2.61657 38.9865 3.24429 38.5127 3.86949 38.0364C5.1425 37.0663 6.41049 36.0861 7.67094 35.0959C10.1467 33.1531 12.5973 31.1752 15.0202 29.1672C19.8863 25.1287 24.6419 20.9573 29.2769 16.6555C31.6045 14.4971 33.9095 12.3111 36.1667 10.0775C38.4014 7.86649 40.5758 5.58525 42.5192 3.1135C42.7301 2.84276 42.9411 2.57202 43.1469 2.29627C43.3855 1.9804 43.7219 1.63696 43.8902 1.27848C44.0207 1.00022 44.0082 0.360977 43.8048 0.112799C43.6516 -0.0752145 43.4759 0.0150321 43.3302 0.12784C43.0214 0.368498 42.7276 0.631717 42.4263 0.884909C40.9876 2.0907 39.5489 3.29399 38.1076 4.49979C35.9232 6.32728 33.7387 8.15728 31.5568 9.98478C29.0459 12.0855 26.5351 14.1888 24.0267 16.2895C21.6113 18.31 19.1983 20.333 16.7829 22.3536C14.8872 23.9404 12.989 25.5298 11.0932 27.1166C10.1366 27.9163 9.16993 28.7059 8.22333 29.5182C8.18065 29.5532 8.13796 29.5908 8.09528 29.6259C8.01744 29.6911 8.07268 29.9819 8.08021 30.0722C8.08272 30.1073 8.16558 30.5159 8.17311 30.5084C9.36577 29.5106 10.5584 28.5104 11.7511 27.5127C14.5859 25.1387 17.4206 22.7672 20.2554 20.3932C23.6702 17.5354 27.0849 14.6776 30.4972 11.8198C33.445 9.35305 36.3902 6.88631 39.338 4.41957C40.2846 3.6274 41.2312 2.83273 42.1803 2.04057C42.5996 1.68961 43.0063 1.27598 43.4583 0.970142C43.5688 0.894936 43.8274 0.787142 43.8801 1.00273L43.8299 0.31084C43.8098 0.508882 43.5587 0.75706 43.4457 0.912484C43.2976 1.11554 43.1469 1.31859 42.9963 1.51914C42.6623 1.96035 42.3234 2.39654 41.9744 2.82521C41.3215 3.63242 40.6436 4.41706 39.9506 5.18917C38.5973 6.69328 37.1761 8.13723 35.7324 9.5536C32.8273 12.4089 29.8569 15.2015 26.8439 17.944C20.8178 23.4315 14.5959 28.7034 8.19571 33.7472C6.60633 35.0006 5.00691 36.239 3.39494 37.4624C2.58895 38.074 1.78045 38.6832 0.969443 39.2873C0.700781 39.4879 0.14588 39.7436 0.0379127 40.077C-0.0349023 40.3026 0.0278693 40.6837 0.0805974 40.9068C0.160945 41.2352 0.341727 41.2853 0.643031 41.1575C1.08243 40.9719 1.51179 40.7564 1.94115 40.5508C2.82497 40.1271 3.70126 39.6834 4.56751 39.2247C6.25481 38.3322 7.90947 37.3771 9.534 36.3744C16.1953 32.2657 22.3645 27.4049 28.4935 22.5566C35.1298 17.3073 41.6781 11.9476 48.2114 6.57295C48.6181 6.23954 49.0224 5.90613 49.4266 5.57272C49.6275 5.40727 50.0568 4.91342 50.2426 5.36966L50.1648 4.94851L50.1723 5.02372V4.59505C50.097 4.93598 49.6225 5.32705 49.3965 5.59528C49.0826 5.96629 48.7688 6.3348 48.4549 6.70331C47.8774 7.37765 47.2924 8.04949 46.7074 8.71631C45.5147 10.07 44.3045 11.4087 43.0741 12.7298C40.616 15.372 38.0876 17.9465 35.4888 20.4534C30.3139 25.4445 24.8679 30.1599 19.1858 34.5669C16.356 36.7629 13.466 38.8812 10.5208 40.9218C10.1868 41.1524 9.68214 41.3831 9.42101 41.6889C9.27287 41.8594 9.30802 42.1151 9.3256 42.3307C9.34318 42.5212 9.35071 42.8345 9.52396 42.9624C9.77756 43.1479 10.2797 42.7669 10.5157 42.654C12.0951 41.902 13.6568 41.1148 15.2035 40.2976C21.4907 36.9735 27.5018 33.1531 33.2868 29.0218C36.1642 26.9687 38.9839 24.8354 41.7609 22.6494C43.1595 21.5489 44.5455 20.4308 45.9189 19.3027C47.1518 18.2925 48.362 17.187 49.8032 16.4775C50.1146 16.3246 51.7492 15.545 51.93 16.0639L51.8571 15.3745C51.8471 15.5675 51.4428 15.9285 51.3123 16.0915C51.139 16.3071 50.9658 16.5226 50.7925 16.7382C50.4435 17.1669 50.0945 17.5956 49.7405 18.0217C49.0349 18.8741 48.3218 19.7189 47.5987 20.5562C46.1901 22.1906 44.7489 23.795 43.275 25.3718C40.2896 28.563 37.1761 31.6339 33.9421 34.5745C32.0991 36.249 30.2185 37.8785 28.3002 39.4678C28.2224 39.533 28.2776 39.8238 28.2851 39.9141C28.2876 39.9492 28.368 40.3578 28.378 40.3503L28.3755 40.3302Z" fill="#132241"/>
</svg>
